<svg xmlns="http://www.w3.org/2000/svg" xmlns:xlink="http://www.w3.org/1999/xlink" version="1.1" x="0px" y="0px" viewBox="0 0 100 125" enable-background="new 0 0 100 100" xml:space="preserve"><path d="M25.4,71.1v8.8c0,0.9,0.7,1.6,1.6,1.6H73c0.9,0,1.6-0.7,1.6-1.6v-8.8c0-10.9-7.2-20.2-17-23.4c4.7-2.7,8-7.7,8-13.6  c0-8.6-7-15.6-15.6-15.6c-8.6,0-15.6,7-15.6,15.6c0,5.8,3.2,10.9,8,13.6C32.5,50.8,25.4,60.1,25.4,71.1z M37.6,34.1  c0-6.8,5.5-12.4,12.4-12.4c6.8,0,12.4,5.5,12.4,12.4S56.8,46.4,50,46.4C43.2,46.4,37.6,40.9,37.6,34.1z M50,49.6  c11.8,0,21.4,9.6,21.4,21.4v7.2H28.6v-7.2C28.6,59.2,38.2,49.6,50,49.6z"/><text x="0" y="115" fill="#000000" font-size="5px" font-weight="bold" font-family="'Helvetica Neue', Helvetica, Arial-Unicode, Arial, Sans-serif">Created by Gregor Cresnar</text><text x="0" y="120" fill="#000000" font-size="5px" font-weight="bold" font-family="'Helvetica Neue', Helvetica, Arial-Unicode, Arial, Sans-serif">from the Noun Project</text></svg>