<svg xmlns="http://www.w3.org/2000/svg" viewBox="0 0 100 125" x="0px" y="0px"><title>Burrito</title><path d="M63.66,32.55a3.56,3.56,0,0,0-1.75-.77,4.59,4.59,0,0,0-1.67-3.23,5.52,5.52,0,0,0-5-.74,8.37,8.37,0,0,0-.88.38,3.45,3.45,0,0,1-.74.3h0c-.23-.06-.37-.22-.76-.77a6,6,0,0,0-1.48-1.57,3.79,3.79,0,0,0-4.07-.2l-.28.17a3.17,3.17,0,0,1-1.36.6,3,3,0,0,1-1.08-.5,6.07,6.07,0,0,0-1.95-.86l-.14,0a4.41,4.41,0,0,0-4.68,1.32c-1.13,1.35-1.34,3-.66,5.19A3.88,3.88,0,0,0,35,35.51l1.82,29.72A10.27,10.27,0,0,0,47.1,74.86H57.89a5,5,0,0,0,4.95-4.65L65,35.53A3.57,3.57,0,0,0,63.66,32.55ZM40,28.52c.45-.54.92-.51,1.81-.32l.16,0a3.84,3.84,0,0,1,1,.5,5.19,5.19,0,0,0,2.46.92,5.28,5.28,0,0,0,3-1l.26-.15a.87.87,0,0,1,.91.08,3.4,3.4,0,0,1,.75.86l.13.18h0l2.25,3.13A1.47,1.47,0,0,0,55.18,31l.4-.18a6,6,0,0,1,.57-.25,2.6,2.6,0,0,1,2.26.25,1.87,1.87,0,0,1,.6,1.44,55.76,55.76,0,0,0-9,3.53c-2.32-2.59-6.43-3.77-9.83-4.3C39.31,29.4,39.81,28.8,40,28.52ZM38.59,45.44,38,35.33a.94.94,0,0,1,.93-1h.17c2.3.31,6.08,1.09,8.2,3q-.8.48-1.58,1a24,24,0,0,0-6.79,6.64ZM59.9,70a2,2,0,0,1-2,1.89H47.1A7.33,7.33,0,0,1,39.79,65L39.17,54.8a1.48,1.48,0,0,0,0-.38c-.23-5.27,2.51-9.87,8.14-13.68a48.41,48.41,0,0,1,13.9-6,.62.62,0,0,1,.78.64Z"/><text x="0" y="115" fill="#000000" font-size="5px" font-weight="bold" font-family="'Helvetica Neue', Helvetica, Arial-Unicode, Arial, Sans-serif">Created by Paul</text><text x="0" y="120" fill="#000000" font-size="5px" font-weight="bold" font-family="'Helvetica Neue', Helvetica, Arial-Unicode, Arial, Sans-serif">from the Noun Project</text></svg>