<svg xmlns="http://www.w3.org/2000/svg" xmlns:xlink="http://www.w3.org/1999/xlink" version="1.1" x="0px" y="0px" viewBox="0 0 90 112.5" enable-background="new 0 0 90 90" xml:space="preserve"><g><path d="M37.3,39.5c-0.6,0-1.2-0.4-1.4-1c-0.3-0.8,0.1-1.6,0.9-1.9c5.8-2.1,4.9-6.1,4.9-6.1c0-0.1,0-0.2,0-0.3L40,10.1   c-0.1-0.8,0.5-1.5,1.3-1.6c0.8-0.1,1.5,0.5,1.6,1.3l1.6,20c0.5,2.3-0.2,7.1-6.7,9.5C37.6,39.5,37.4,39.5,37.3,39.5z"/></g><g><path d="M27.9,39.5c-0.2,0-0.3,0-0.5-0.1c-6.5-2.4-7.3-7.2-6.7-9.5l1.6-20c0.1-0.8,0.8-1.4,1.6-1.3c0.8,0.1,1.4,0.8,1.3,1.6   l-1.6,20.2c0,0.1,0,0.2,0,0.3c-0.1,0.4-0.8,4,4.9,6.1c0.8,0.3,1.2,1.1,0.9,1.9C29.1,39.1,28.5,39.5,27.9,39.5z"/></g><g><path d="M29.3,31.8c-0.8,0-1.5-0.7-1.5-1.5V7.7c0-0.8,0.7-1.5,1.5-1.5s1.5,0.7,1.5,1.5v22.6C30.8,31.2,30.2,31.8,29.3,31.8z"/></g><g><path d="M35.6,31.8c-0.8,0-1.5-0.7-1.5-1.5V7.7c0-0.8,0.7-1.5,1.5-1.5s1.5,0.7,1.5,1.5v22.6C37.1,31.2,36.4,31.8,35.6,31.8z"/></g><g><path d="M55.9,48.8c-0.4,0-0.8-0.2-1.1-0.5c-0.3-0.4-3.4-3.7-4.3-6.2c-2.9-8.2,1.5-19.5,1.7-20c3.1-7.6,3.8-8.6,4.8-9.9l0.2-0.3   C58.7,9.8,61,7.2,63.4,8c2.5,0.9,2.6,5.1,2.6,6.9c0,0.8-0.8,1.5-1.5,1.4c-0.8,0-1.4-0.7-1.4-1.5c0.1-1.7-0.2-3.6-0.6-4   c0,0.1-0.9,0.4-2.7,2.9L59.4,14c-0.8,1.1-1.5,2-4.4,9.2c0,0.1-4.1,10.8-1.6,18c0.6,1.6,2.8,4.3,3.6,5.1c0.6,0.6,0.5,1.5-0.1,2.1   C56.6,48.6,56.2,48.8,55.9,48.8z"/></g><g><path d="M55.4,41.6c-0.2,0-0.4-0.1-0.4-0.3c-3.3-10.3,4.5-25,5.3-26.7c0.1-0.2,0.4-0.3,0.6-0.2c0.2,0.1,0.3,0.4,0.2,0.6   c-0.3,0.6-8.5,15.8-5.3,26c0.1,0.2-0.1,0.5-0.3,0.6C55.5,41.5,55.4,41.6,55.4,41.6z"/></g><g><path d="M33,84.2c-3.2,0-5.7-2.4-5.7-5.3V38.4c0-0.8,0.7-1.5,1.5-1.5c0.8,0,1.5,0.7,1.5,1.5v40.6c0,1.3,1.3,2.4,2.8,2.4   c1.5,0,2.8-1.1,2.8-2.4V38.4c0-0.8,0.7-1.5,1.5-1.5s1.5,0.7,1.5,1.5v40.6C38.7,81.9,36.2,84.2,33,84.2z"/></g><g><path d="M60.2,84.6c-3.2,0-5.7-2.4-5.7-5.3V47.3c0-0.8,0.7-1.5,1.5-1.5s1.5,0.7,1.5,1.5v31.9c0,1.3,1.3,2.4,2.8,2.4   c1.5,0,2.8-1.1,2.8-2.4V14.8c0-0.8,0.7-1.5,1.5-1.5c0.8,0,1.5,0.7,1.5,1.5v64.4C65.9,82.2,63.3,84.6,60.2,84.6z"/></g><text x="0" y="105" fill="#000000" font-size="5px" font-weight="bold" font-family="'Helvetica Neue', Helvetica, Arial-Unicode, Arial, Sans-serif">Created by Sergey Novosyolov</text><text x="0" y="110" fill="#000000" font-size="5px" font-weight="bold" font-family="'Helvetica Neue', Helvetica, Arial-Unicode, Arial, Sans-serif">from the Noun Project</text></svg>