<svg xmlns="http://www.w3.org/2000/svg" xmlns:xlink="http://www.w3.org/1999/xlink" version="1.1" x="0px" y="0px" viewBox="0 0 100 125" enable-background="new 0 0 100 100" xml:space="preserve"><path d="M71.289,69.172L56.906,54.789c2.366-2.85,3.657-6.401,3.657-10.152c0-4.255-1.657-8.255-4.666-11.263  c-3.009-3.01-7.009-4.667-11.264-4.667s-8.256,1.657-11.265,4.667c-6.21,6.209-6.211,16.314,0,22.528  c3.009,3.008,7.01,4.666,11.265,4.666c3.75,0,7.301-1.291,10.151-3.658l14.383,14.383L71.289,69.172z M35.49,53.781  c-5.041-5.043-5.041-13.246,0-18.286c2.442-2.442,5.689-3.788,9.144-3.788c3.453,0,6.7,1.346,9.143,3.788  c2.441,2.441,3.787,5.688,3.787,9.142c0,3.454-1.346,6.701-3.787,9.144c-2.442,2.441-5.689,3.787-9.143,3.787  C41.18,57.568,37.933,56.223,35.49,53.781z"/><text x="0" y="115" fill="#000000" font-size="5px" font-weight="bold" font-family="'Helvetica Neue', Helvetica, Arial-Unicode, Arial, Sans-serif">Created by asianson.design</text><text x="0" y="120" fill="#000000" font-size="5px" font-weight="bold" font-family="'Helvetica Neue', Helvetica, Arial-Unicode, Arial, Sans-serif">from the Noun Project</text></svg>